<?xml version="1.0" encoding="utf-8"?>
<!-- Generator: Adobe Illustrator 16.0.0, SVG Export Plug-In . SVG Version: 6.00 Build 0)  -->
<!DOCTYPE svg PUBLIC "-//W3C//DTD SVG 1.1//EN" "http://www.w3.org/Graphics/SVG/1.1/DTD/svg11.dtd">
<svg version="1.1" id="Layer_1" xmlns="http://www.w3.org/2000/svg" xmlns:xlink="http://www.w3.org/1999/xlink" x="0px" y="0px"
	 width="295px" height="65px" viewBox="0 0 295 65" enable-background="new 0 0 295 65" xml:space="preserve">
<g>
	<path fill="#FFFFFF" d="M1.687,28.003c0-0.513,0.409-0.974,0.973-0.974h11.314c6.297,0,11.468,5.119,11.468,11.314
		c0,6.349-5.171,11.519-11.416,11.519H5.578v12.029c0,0.514-0.461,0.976-0.973,0.976H2.66c-0.563,0-0.973-0.462-0.973-0.976V28.003
		L1.687,28.003z M13.718,46.073c4.197,0,7.781-3.431,7.781-7.833c0-4.146-3.584-7.32-7.781-7.32h-8.14v15.153H13.718z"/>
	<path fill="#FFFFFF" d="M32.2,28.003c0-0.513,0.409-0.974,0.973-0.974h20.17c0.563,0,0.973,0.461,0.973,0.974v1.484
		c0,0.512-0.409,0.972-0.973,0.972H36.142V42.95h14.692c0.512,0,0.973,0.461,0.973,0.973v1.484c0,0.563-0.461,0.973-0.973,0.973
		H36.142v13.054h17.201c0.563,0,0.973,0.461,0.973,0.976v1.481c0,0.512-0.409,0.976-0.973,0.976h-20.17
		c-0.563,0-0.973-0.464-0.973-0.976V28.003z"/>
	<path fill="#FFFFFF" d="M62.508,27.438c0-0.512,0.461-0.921,0.973-0.921h1.28L87.85,55.288c0.051,0,0.051,0,0.103,0V28.002
		c0-0.513,0.409-0.973,0.973-0.973h1.792c0.512,0,0.973,0.46,0.973,0.973v34.453c0,0.511-0.461,0.921-0.973,0.921h-0.922
		L66.297,34.042h-0.051v27.851c0,0.512-0.409,0.975-0.973,0.975h-1.792c-0.512,0-0.973-0.463-0.973-0.975V27.438L62.508,27.438z"/>
	<path fill="#FFFFFF" d="M107.202,30.459h-8.908c-0.563,0-0.972-0.461-0.972-0.972v-1.484c0-0.513,0.409-0.974,0.972-0.974H120
		c0.563,0,0.973,0.461,0.973,0.974v1.484c0,0.512-0.409,0.972-0.973,0.972h-8.908v31.434c0,0.512-0.461,0.975-0.973,0.975h-1.946
		c-0.512,0-0.973-0.463-0.973-0.975L107.202,30.459L107.202,30.459z"/>
	<path fill="#FFFFFF" d="M126.605,28.003c0-0.513,0.461-0.974,0.973-0.974h1.997c0.563,0,0.973,0.461,0.973,0.974V42.95h20.784
		V28.003c0-0.513,0.409-0.974,0.973-0.974h1.997c0.513,0,0.972,0.461,0.972,0.974v33.89c0,0.512-0.459,0.975-0.972,0.975h-1.997
		c-0.563,0-0.973-0.463-0.973-0.975V46.381h-20.784v15.512c0,0.512-0.41,0.976-0.973,0.976h-1.997c-0.512,0-0.973-0.464-0.973-0.976
		V28.003z"/>
	<path fill="#FFFFFF" d="M181.486,26.518c10.24,0,18.43,8.241,18.43,18.48c0,10.238-8.189,18.378-18.43,18.378
		c-10.239,0-18.379-8.14-18.379-18.378C163.107,34.759,171.247,26.518,181.486,26.518z M181.486,59.793
		c8.14,0,14.847-6.654,14.847-14.795s-6.707-14.897-14.847-14.897c-8.139,0-14.797,6.758-14.797,14.897
		C166.689,53.139,173.348,59.793,181.486,59.793z"/>
	<path fill="#FFFFFF" d="M207.29,28.003c0-0.513,0.462-0.974,0.974-0.974h1.945c0.563,0,0.973,0.461,0.973,0.974V49.35
		c0,5.838,3.635,10.396,9.625,10.396c6.041,0,9.729-4.454,9.729-10.291v-21.45c0-0.513,0.406-0.973,0.973-0.973h1.945
		c0.512,0,0.973,0.46,0.973,0.973v21.655c0,7.778-5.525,13.719-13.615,13.719c-8.037,0-13.518-5.938-13.518-13.719L207.29,28.003
		L207.29,28.003z"/>
	<path fill="#FFFFFF" d="M242.104,57.489c0.256-0.308,0.516-0.665,0.771-0.972c0.513-0.666,1.071-1.076,1.792-0.463
		c0.355,0.309,4.098,3.893,8.65,3.893c4.146,0,6.858-2.61,6.858-5.631c0-3.533-3.071-5.633-8.959-8.09
		c-5.632-2.457-9.01-4.764-9.01-10.6c0-3.481,2.765-9.111,10.903-9.111c5.017,0,8.754,2.61,8.754,2.61
		c0.307,0.154,0.921,0.768,0.307,1.741c-0.204,0.307-0.408,0.665-0.613,0.973c-0.459,0.716-0.973,0.922-1.791,0.461
		c-0.356-0.205-3.584-2.354-6.707-2.354c-5.427,0-7.063,3.481-7.063,5.631c0,3.431,2.61,5.428,6.912,7.22
		c6.909,2.813,11.362,5.429,11.362,11.365c0,5.321-5.065,9.214-11.058,9.214c-6.04,0-10.137-3.531-10.803-4.146
		C242.001,58.871,241.488,58.462,242.104,57.489z"/>
	<path fill="#FFFFFF" d="M271.693,28.003c0-0.513,0.41-0.974,0.974-0.974h20.17c0.563,0,0.974,0.461,0.974,0.974v1.484
		c0,0.512-0.41,0.972-0.974,0.972h-17.2V42.95h14.691c0.513,0,0.974,0.461,0.974,0.973v1.484c0,0.563-0.461,0.973-0.974,0.973
		h-14.691v13.054h17.2c0.563,0,0.974,0.461,0.974,0.976v1.481c0,0.512-0.41,0.976-0.974,0.976h-20.17
		c-0.563,0-0.974-0.464-0.974-0.976V28.003z"/>
</g>
<g>
	<path fill="#FFFFFF" d="M5.787,3.131h-3.92c-0.248,0-0.428-0.203-0.428-0.428V2.05c0-0.225,0.181-0.428,0.428-0.428h9.551
		c0.248,0,0.428,0.203,0.428,0.428v0.653c0,0.225-0.18,0.428-0.428,0.428H7.499v13.83c0,0.226-0.204,0.429-0.428,0.429H6.215
		c-0.226,0-0.428-0.203-0.428-0.429V3.131L5.787,3.131z"/>
	<path fill="#FFFFFF" d="M14.325,2.05c0-0.225,0.203-0.428,0.428-0.428h0.878c0.248,0,0.428,0.203,0.428,0.428v6.577h9.146V2.05
		c0-0.225,0.18-0.428,0.428-0.428h0.878c0.225,0,0.428,0.203,0.428,0.428v14.912c0,0.225-0.203,0.428-0.428,0.428h-0.878
		c-0.248,0-0.428-0.203-0.428-0.428v-6.825H16.06v6.825c0,0.225-0.18,0.428-0.428,0.428h-0.878c-0.226,0-0.428-0.203-0.428-0.428
		L14.325,2.05L14.325,2.05z"/>
	<path fill="#FFFFFF" d="M31.535,2.05c0-0.225,0.18-0.428,0.428-0.428h8.875c0.248,0,0.428,0.203,0.428,0.428v0.653
		c0,0.225-0.181,0.428-0.428,0.428H33.27v5.496h6.465c0.226,0,0.428,0.202,0.428,0.428v0.653c0,0.248-0.203,0.428-0.428,0.428H33.27
		v5.744h7.569c0.248,0,0.428,0.203,0.428,0.429v0.652c0,0.226-0.181,0.429-0.428,0.429h-8.875c-0.248,0-0.428-0.203-0.428-0.429
		L31.535,2.05L31.535,2.05z"/>
</g>
</svg>
